<svg width="88" height="78" xmlns="http://www.w3.org/2000/svg" xmlns:xlink="http://www.w3.org/1999/xlink"><defs><path id="a" d="M0 0h87.498v77.235H.001z"/></defs><g fill="none" fill-rule="evenodd"><mask id="b" fill="#fff"><use xlink:href="#a"/></mask><path d="M26.66 64.554h15.948c1.314 0 1.314-2 0-2H26.66c-1.327 0-1.327 2 0 2zm26.488-8.131l7.805 5.345 21.143-30.872-8.01-5.046-20.938 30.573zm22.07-32.224l8.008 5.045 1.663-2.426a3.505 3.505 0 0 0-.911-4.866l-2.032-1.391a3.5 3.5 0 0 0-4.86.908l-1.868 2.73zM52.48 66.536l6.785-3.5-6.558-4.491-.227 7.99zM19.55 11.584h30.453V6.553A3.557 3.557 0 0 0 46.45 3H6.555A3.557 3.557 0 0 0 3 6.553v51.58a3.558 3.558 0 0 0 3.554 3.554h6.44V17.172c0-2.584 2.864-5.588 6.555-5.588zm30.882 56.589l.327-11.517a.87.87 0 0 1 .174-.538c.109-.154 11.56-16.88 11.56-16.88l.01-21.654c0-1.654-1.345-3-3-3H19.55c-2.053 0-3.554 1.702-3.554 2.588v53.196c0 2.349 1.139 3.867 2.9 3.867h43.58c2.018 0 2.018 3 0 3H19.582c-4.158 0-6.585-2.824-6.585-6.867v-5.681H6.555A6.562 6.562 0 0 1 0 58.133V6.553A6.561 6.561 0 0 1 6.555 0H46.45a6.56 6.56 0 0 1 6.553 6.553v5.03h6.5c3.309 0 6 2.693 6 6v17.26l9.933-14.504a5.505 5.505 0 0 1 7.64-1.43l2.033 1.393a5.508 5.508 0 0 1 1.43 7.646L62.038 63.723a1.102 1.102 0 0 1-.367.324L51.89 69.09c-.65.362-1.462-.173-1.458-.917zM26.66 52.053h24.843c1.313 0 1.313-2 0-2H26.66c-1.327 0-1.327 2 0 2zm0-12.374h24.843c1.313 0 1.313-2 0-2H26.66c-1.327 0-1.327 2 0 2zm0-12h24.843c1.313 0 1.313-2 0-2H26.66c-1.327 0-1.327 2 0 2z" fill="#A76936" mask="url(#b)"/></g></svg>