<svg width="68" height="89" xmlns="http://www.w3.org/2000/svg" xmlns:xlink="http://www.w3.org/1999/xlink"><defs><path id="a" d="M0 88.967h67.747V0H0z"/></defs><g fill="none" fill-rule="evenodd"><path d="M66.875 44.705H32.641a.872.872 0 1 1 0-1.743h34.234a.871.871 0 1 1 0 1.743M49.759 55.49H32.64a.872.872 0 1 1 0-1.743h17.118a.871.871 0 1 1 0 1.743m17.117 22.16H32.641a.872.872 0 1 1 0-1.744h34.234a.871.871 0 1 1 0 1.744M32.641 88.19a.872.872 0 1 1 0-1.744l18.268-.001a.872.872 0 1 1 0 1.744H32.64zm34.234-74.955H32.641a.872.872 0 1 1 0-1.743h34.234a.871.871 0 1 1 0 1.743M50.909 23.08H32.64a.871.871 0 1 1 0-1.744h18.27a.871.871 0 1 1 0 1.744" fill="#205F7C"/><mask id="b" fill="#fff"><use xlink:href="#a"/></mask><path d="M2.615 21.53H21.53V2.616H2.615V21.53zm20.223 2.615H1.308A1.308 1.308 0 0 1 0 22.838V1.308C0 .586.586 0 1.308 0h21.53c.721 0 1.307.586 1.307 1.308v21.53c0 .721-.586 1.307-1.307 1.307zM2.615 53.94H21.53V35.027H2.615v18.915zm20.223 2.616H1.308A1.308 1.308 0 0 1 0 55.248v-21.53c0-.721.586-1.307 1.308-1.307h21.53c.721 0 1.307.586 1.307 1.307v21.53c0 .722-.586 1.308-1.307 1.308zm6.394 4.124A.87.87 0 0 0 28 60.671L12.395 76.117 8.958 72.68a.87.87 0 1 0-1.233 1.232l4.05 4.05a.872.872 0 0 0 1.23.003l8.525-8.437v16.823H2.616V67.437h9.65a1.308 1.308 0 0 0 0-2.616H1.308C.586 64.821 0 65.407 0 66.13v21.53c0 .722.586 1.307 1.308 1.307h21.53c.722 0 1.307-.585 1.307-1.307V66.94l5.08-5.029a.87.87 0 0 0 .007-1.233" fill="#205F7C" mask="url(#b)"/></g></svg>