<svg xmlns="http://www.w3.org/2000/svg" xmlns:xlink="http://www.w3.org/1999/xlink" width="87" height="77"><defs><path id="a" d="M0 0h88.524v79.09H0z"/></defs><g transform="translate(.79)" fill="none" fill-rule="evenodd"><mask id="b" fill="#fff"><use xlink:href="#a"/></mask><path d="M65.293 40.782c-4.029 0-7.307-4.393-7.307-9.792v-2.76c0-5.398 3.278-9.791 7.307-9.791 4.03 0 7.308 4.393 7.308 9.792v2.759c0 5.399-3.278 9.792-7.308 9.792zm-12.872.253c-1.48-4.726-5.111-8.08-9.353-8.08-4.312 0-7.99 3.47-9.421 8.32a39.061 39.061 0 0 0-4.857-3.62c1.29-2.15 2.065-4.822 2.065-7.727v-1.602c1.84-1.814 3.479-3.211 4.823-4.117 1.84 2.535 4.468 4.134 7.39 4.134 2.994 0 5.68-1.678 7.527-4.323 1.394.91 3.021 2.242 4.645 3.81-.004.135-.017 3.16-.017 3.16 0 2.415.54 4.668 1.46 6.598-1.557 1.03-3.084 2.344-4.262 3.447zm8.55 31.62c0 .514-.376.965-.869.965H26.433c-.624 0-.87-.623-.869-.966.024-5.54 5.302-11.87 10.456-15.026 1.817 2.266 4.306 3.67 7.048 3.67 2.905 0 5.52-1.58 7.358-4.088 5.15 3.064 10.546 9.743 10.546 15.445zM50.377 48.507c0 5.399-3.278 9.792-7.308 9.792-4.029 0-7.307-4.393-7.307-9.792v-2.76c0-5.4 3.278-9.791 7.307-9.791 4.03 0 7.308 4.392 7.308 9.792v2.759zm-36.988 8.285H3.632a.824.824 0 0 1-.614-.28.995.995 0 0 1-.255-.687c.063-5.441 6.02-12.72 11.599-16.055 1.745 1.84 3.983 2.949 6.423 2.949 2.336 0 4.484-1.025 6.194-2.728 1.763 1.04 4.343 2.945 6.063 4.672-.024.358-.044.719-.044 1.085v2.759c0 2.427.545 4.69 1.473 6.627-.807.502-2.377 1.658-2.377 1.658H13.388zm.09-29.623c0-5.4 3.278-9.792 7.307-9.792 4.03 0 7.307 4.392 7.307 9.792v2.759c0 5.399-3.277 9.792-7.307 9.792-4.029 0-7.307-4.393-7.307-9.792v-2.76zm22.283-14.376c0-5.4 3.278-9.793 7.307-9.793 4.03 0 7.308 4.393 7.308 9.793v2.758c0 5.399-3.278 9.792-7.308 9.792-4.029 0-7.307-4.393-7.307-9.792v-2.758zm16.13 41.867c.794-1.827 1.248-3.924 1.248-6.153v-2.76c0-.45-.02-.894-.056-1.332 1.8-1.808 3.63-3.347 5.138-4.331 1.82 2.284 4.318 3.698 7.072 3.698 2.696 0 5.141-1.36 6.951-3.56 5.311 3.249 10.655 9.87 10.754 15.33.01.597-.466.967-.87.967-1.832 0-1.832 3 0 3 .977 0 1.894-.416 2.58-1.171.69-.758 1.064-1.764 1.053-2.833-.078-6.72-5.919-14.013-11.933-17.767.967-1.964 1.536-4.276 1.536-6.758v-2.76c0-7.052-4.519-12.791-10.07-12.791-4.788 0-8.8 4.272-9.815 9.97-1.078-.981-2.466-2.14-3.89-3.071.976-1.97 1.55-4.292 1.55-6.787v-2.758C53.139 5.739 48.62 0 43.069 0c-5.553 0-10.07 5.739-10.07 12.793v2.758c0 2.582.61 4.983 1.65 6.996-1.135.769-2.427 1.833-3.863 3.174-.568-6.374-4.835-11.344-10-11.344-5.554 0-10.07 5.738-10.07 12.792v2.759c0 2.787.712 5.36 1.908 7.463C7.01 40.938 0 48.653 0 55.789c0 2.027 1.472 4.003 3.632 4.003H28.84c-3.42 3.646-5.984 8.26-6.038 12.824-.03 2.622 2.004 4.004 3.632 4.004h33.67c2.287 0 3.653-2.07 3.632-4.003-.053-4.581-2.595-9.35-6.01-13.098h12.21c1.829 0 1.829-3 0-3h-14.33l-3.713-1.86z" class="ctaCard__icon" fill="#466E5A" mask="url(#b)"/></g></svg>